<?xml version="1.0" standalone="no"?>
<!DOCTYPE svg PUBLIC "-//W3C//DTD SVG 20010904//EN"
 "http://www.w3.org/TR/2001/REC-SVG-20010904/DTD/svg10.dtd">
<svg version="1.0" xmlns="http://www.w3.org/2000/svg"
 width="1256.000000pt" height="1256.000000pt" viewBox="0 0 1256.000000 1256.000000"
 preserveAspectRatio="xMidYMid meet">
<metadata>
Created by potrace 1.14, written by Peter Selinger 2001-2017
</metadata>
<g transform="translate(0.000000,1256.000000) scale(0.100000,-0.100000)"
fill="#000000" stroke="none">
<path d="M6088 12555 c-2 -1 -47 -6 -102 -9 -54 -4 -113 -8 -130 -11 -17 -2
-56 -7 -86 -10 -30 -3 -81 -10 -112 -15 -32 -6 -69 -12 -83 -15 -121 -20 -167
-30 -280 -60 -442 -115 -809 -296 -1145 -563 -113 -90 -322 -297 -407 -402
-149 -185 -288 -429 -380 -665 -19 -49 -41 -106 -48 -125 -13 -33 -53 -166
-55 -182 -1 -4 -7 -29 -15 -56 -14 -45 -49 -207 -61 -277 -2 -16 -9 -55 -14
-85 -5 -30 -12 -80 -15 -110 -3 -30 -8 -68 -10 -85 -13 -104 -20 -276 -20
-520 1 -276 9 -427 31 -585 3 -19 7 -51 10 -70 4 -34 33 -189 58 -317 11 -52
50 -187 88 -298 81 -241 181 -447 310 -642 65 -98 91 -133 191 -257 74 -92
248 -257 374 -357 401 -316 839 -512 1385 -619 31 -6 66 -12 77 -13 11 0 18
-4 16 -7 -2 -3 -508 -5 -1125 -4 -617 0 -1123 -3 -1125 -7 -3 -3 -7 -28 -9
-55 -3 -27 -8 -69 -10 -94 -3 -25 -8 -72 -11 -105 -3 -33 -8 -76 -10 -95 -2
-19 -7 -60 -10 -90 -3 -30 -7 -71 -10 -90 -2 -19 -7 -64 -10 -100 -6 -69 -14
-139 -20 -180 -2 -14 -7 -59 -10 -100 -3 -41 -8 -86 -10 -100 -2 -14 -6 -52
-10 -85 -3 -33 -7 -76 -10 -95 -2 -19 -7 -66 -11 -105 -3 -38 -8 -81 -9 -95
-5 -42 -15 -132 -19 -180 -7 -70 -16 -162 -21 -195 -2 -16 -7 -61 -10 -99 l-7
-68 43 7 c24 4 53 9 64 11 56 12 127 26 295 59 102 20 194 38 205 41 11 2 31
6 45 9 14 2 84 16 155 30 72 15 141 28 155 31 126 24 179 34 200 39 14 3 36 7
50 10 14 2 72 13 130 25 58 12 116 23 130 26 14 2 48 9 75 15 115 23 115 23
116 -8 0 -15 2 -37 4 -48 2 -11 7 -49 10 -85 3 -36 7 -81 10 -100 2 -19 7 -64
10 -100 4 -36 8 -83 11 -105 2 -22 8 -89 14 -150 6 -60 13 -126 15 -145 3 -19
7 -62 10 -95 3 -33 7 -76 9 -95 3 -19 8 -66 11 -105 3 -38 8 -88 10 -110 3
-22 7 -65 10 -95 3 -30 7 -71 10 -90 2 -19 7 -69 10 -110 3 -40 8 -83 10 -95
2 -11 7 -53 10 -93 3 -41 7 -88 10 -105 2 -18 7 -59 10 -92 3 -33 7 -85 10
-115 3 -30 8 -73 10 -95 14 -139 21 -213 30 -290 3 -22 7 -65 10 -95 8 -87 14
-151 20 -210 8 -72 13 -121 20 -195 6 -60 11 -106 20 -188 2 -23 7 -73 10
-112 10 -102 14 -143 19 -184 3 -20 8 -67 11 -106 3 -38 8 -88 10 -110 12
-110 25 -237 30 -295 4 -36 8 -81 10 -100 2 -19 7 -64 10 -100 3 -36 8 -76 10
-90 2 -14 7 -61 10 -105 4 -44 8 -93 10 -108 2 -15 6 -59 10 -97 4 -38 8 -78
10 -87 2 -10 4 -25 4 -33 1 -13 118 -15 997 -13 547 0 997 3 999 5 4 4 13 81
30 263 3 39 8 86 10 105 9 78 32 306 40 395 3 33 8 71 10 85 3 14 7 59 11 100
3 41 7 89 9 105 5 59 16 161 21 205 2 25 6 65 9 90 2 25 7 70 10 100 3 30 8
75 10 100 5 51 15 148 21 202 2 21 6 63 9 95 3 32 7 78 9 103 17 152 25 233
31 300 3 30 7 75 10 100 22 213 34 329 40 395 3 28 7 68 9 90 3 22 8 76 12
120 3 44 8 82 9 85 2 3 6 46 10 95 4 50 9 97 10 105 1 8 6 49 10 90 3 41 8 86
10 100 2 14 7 59 10 100 3 41 10 111 15 155 5 44 12 112 16 150 4 39 8 81 9
95 2 14 6 61 10 105 4 44 8 87 10 95 1 8 6 53 10 100 4 47 9 93 11 103 1 9 6
52 9 95 3 42 8 86 10 97 2 11 4 26 4 33 1 9 10 12 29 8 15 -3 43 -8 62 -11 19
-3 42 -8 50 -10 8 -2 29 -7 45 -9 17 -3 269 -53 560 -111 292 -58 539 -107
550 -109 135 -26 239 -47 244 -50 3 -2 30 -7 59 -11 l52 -6 -5 48 c-3 26 -7
66 -10 88 -5 45 -13 118 -19 185 -3 25 -7 70 -11 100 -3 30 -7 75 -10 100 -3
25 -7 70 -11 100 -9 78 -10 95 -18 180 -4 41 -9 86 -11 100 -2 14 -7 54 -10
90 -3 36 -8 76 -10 90 -2 14 -7 59 -10 100 -4 41 -8 86 -10 100 -3 27 -16 149
-20 190 -2 14 -6 52 -9 85 -4 33 -9 83 -12 110 -3 28 -7 61 -9 75 -2 14 -6 57
-10 95 -3 39 -8 77 -10 85 -5 14 -122 16 -1099 15 -602 0 -1092 3 -1090 7 2 4
12 7 22 6 9 0 31 3 47 5 17 3 48 9 70 12 184 30 558 133 710 196 17 7 32 13
35 13 19 5 185 78 280 124 204 99 554 314 566 347 3 6 -8 36 -24 66 -16 29
-66 126 -112 214 -45 88 -102 196 -125 240 -23 44 -73 139 -110 210 -37 72
-70 133 -74 137 -3 3 -27 -4 -52 -16 -26 -13 -55 -26 -65 -29 -11 -3 -50 -18
-89 -32 -149 -57 -364 -113 -502 -130 -26 -4 -59 -8 -73 -11 -97 -16 -361 -21
-473 -10 -419 44 -813 330 -1030 749 -62 118 -133 317 -156 440 -6 28 -12 61
-14 72 -6 26 -16 91 -22 135 -27 202 -27 611 1 810 9 65 38 221 48 255 2 6 6
28 11 50 4 22 12 46 18 53 5 6 7 12 3 12 -9 0 50 156 91 240 161 329 415 542
769 645 48 14 101 28 118 30 38 7 94 16 120 21 126 23 545 22 661 -1 11 -2 40
-7 65 -10 139 -16 359 -69 492 -118 l66 -24 20 41 c11 23 77 163 147 311 70
149 154 326 187 394 63 135 76 171 60 171 -6 0 -17 6 -24 13 -22 22 -178 121
-273 174 -272 151 -573 270 -961 382 -128 36 -349 90 -401 96 -12 2 -34 6 -50
9 -37 8 -59 12 -116 20 -27 4 -57 9 -67 11 -11 2 -50 7 -87 10 -37 4 -77 10
-88 12 -22 6 -571 13 -577 8z"/>
<path d="M7475 10552 c-536 -49 -964 -419 -1093 -943 -146 -590 163 -1211 718
-1444 75 -31 209 -71 280 -81 95 -15 327 -10 417 9 96 20 223 62 270 88 19 11
38 19 44 19 5 0 22 8 37 19 15 10 61 41 102 67 108 71 246 212 328 336 180
274 243 587 186 928 -8 49 -52 199 -69 238 -8 17 -23 49 -32 70 -49 107 -147
244 -245 343 -66 66 -198 169 -216 169 -5 0 -12 3 -14 8 -6 15 -147 82 -235
112 -50 16 -127 37 -171 45 -74 14 -240 24 -307 17z"/>
</g>
</svg>
